<mxfile host="app.diagrams.net" modified="2024-06-19T18:36:21.208Z" agent="Mozilla/5.0 (Macintosh; Intel Mac OS X 10_15_7) AppleWebKit/537.36 (KHTML, like Gecko) Chrome/122.0.0.0 YaBrowser/24.4.0.0 Safari/537.36" etag="f7KjnTlZoHAA55Q7B3Yf" version="24.5.4" type="github">
  <diagram name="Страница — 1" id="gHx_n85QBuHRJ2gk7J4p">
    <mxGraphModel dx="419" dy="257" grid="1" gridSize="10" guides="1" tooltips="1" connect="1" arrows="1" fold="1" page="1" pageScale="1" pageWidth="827" pageHeight="1169" math="0" shadow="0">
      <root>
        <mxCell id="0" />
        <mxCell id="1" parent="0" />
        <mxCell id="gWYPEoPo8H_f7uhvh9Qr-1" value="" style="endArrow=classic;html=1;rounded=0;" parent="1" edge="1">
          <mxGeometry width="50" height="50" relative="1" as="geometry">
            <mxPoint x="270" y="438" as="sourcePoint" />
            <mxPoint x="320" y="388" as="targetPoint" />
          </mxGeometry>
        </mxCell>
        <mxCell id="gWYPEoPo8H_f7uhvh9Qr-7" value="18" style="edgeLabel;html=1;align=center;verticalAlign=middle;resizable=0;points=[];" parent="gWYPEoPo8H_f7uhvh9Qr-1" vertex="1" connectable="0">
          <mxGeometry x="-0.0938" relative="1" as="geometry">
            <mxPoint as="offset" />
          </mxGeometry>
        </mxCell>
        <mxCell id="gWYPEoPo8H_f7uhvh9Qr-2" value="" style="endArrow=classic;html=1;rounded=0;" parent="1" edge="1">
          <mxGeometry width="50" height="50" relative="1" as="geometry">
            <mxPoint x="360" y="468" as="sourcePoint" />
            <mxPoint x="350" y="398" as="targetPoint" />
          </mxGeometry>
        </mxCell>
        <mxCell id="gWYPEoPo8H_f7uhvh9Qr-11" value="12" style="edgeLabel;html=1;align=center;verticalAlign=middle;resizable=0;points=[];" parent="gWYPEoPo8H_f7uhvh9Qr-2" vertex="1" connectable="0">
          <mxGeometry x="-0.0794" relative="1" as="geometry">
            <mxPoint as="offset" />
          </mxGeometry>
        </mxCell>
        <mxCell id="gWYPEoPo8H_f7uhvh9Qr-3" value="" style="endArrow=classic;html=1;rounded=0;" parent="1" edge="1">
          <mxGeometry width="50" height="50" relative="1" as="geometry">
            <mxPoint x="340" y="480" as="sourcePoint" />
            <mxPoint x="280" y="460" as="targetPoint" />
          </mxGeometry>
        </mxCell>
        <mxCell id="gWYPEoPo8H_f7uhvh9Qr-12" value="28" style="edgeLabel;html=1;align=center;verticalAlign=middle;resizable=0;points=[];" parent="gWYPEoPo8H_f7uhvh9Qr-3" vertex="1" connectable="0">
          <mxGeometry x="-0.049" y="1" relative="1" as="geometry">
            <mxPoint as="offset" />
          </mxGeometry>
        </mxCell>
        <mxCell id="gWYPEoPo8H_f7uhvh9Qr-4" value="" style="endArrow=classic;html=1;rounded=0;" parent="1" edge="1">
          <mxGeometry width="50" height="50" relative="1" as="geometry">
            <mxPoint x="305" y="380" as="sourcePoint" />
            <mxPoint x="255" y="430" as="targetPoint" />
          </mxGeometry>
        </mxCell>
        <mxCell id="gWYPEoPo8H_f7uhvh9Qr-14" value="27" style="edgeLabel;html=1;align=center;verticalAlign=middle;resizable=0;points=[];" parent="gWYPEoPo8H_f7uhvh9Qr-4" vertex="1" connectable="0">
          <mxGeometry x="-0.1413" y="-2" relative="1" as="geometry">
            <mxPoint as="offset" />
          </mxGeometry>
        </mxCell>
        <mxCell id="gWYPEoPo8H_f7uhvh9Qr-5" value="" style="endArrow=classic;html=1;rounded=0;" parent="1" edge="1">
          <mxGeometry width="50" height="50" relative="1" as="geometry">
            <mxPoint x="270" y="478" as="sourcePoint" />
            <mxPoint x="330" y="498" as="targetPoint" />
          </mxGeometry>
        </mxCell>
        <mxCell id="gWYPEoPo8H_f7uhvh9Qr-15" value="36" style="edgeLabel;html=1;align=center;verticalAlign=middle;resizable=0;points=[];" parent="gWYPEoPo8H_f7uhvh9Qr-5" vertex="1" connectable="0">
          <mxGeometry x="-0.1505" y="-1" relative="1" as="geometry">
            <mxPoint as="offset" />
          </mxGeometry>
        </mxCell>
        <mxCell id="gWYPEoPo8H_f7uhvh9Qr-6" value="" style="endArrow=classic;html=1;rounded=0;" parent="1" edge="1">
          <mxGeometry width="50" height="50" relative="1" as="geometry">
            <mxPoint x="370" y="398" as="sourcePoint" />
            <mxPoint x="380" y="468" as="targetPoint" />
          </mxGeometry>
        </mxCell>
        <mxCell id="gWYPEoPo8H_f7uhvh9Qr-13" value="30" style="edgeLabel;html=1;align=center;verticalAlign=middle;resizable=0;points=[];" parent="gWYPEoPo8H_f7uhvh9Qr-6" vertex="1" connectable="0">
          <mxGeometry x="-0.1217" relative="1" as="geometry">
            <mxPoint as="offset" />
          </mxGeometry>
        </mxCell>
        <mxCell id="gWYPEoPo8H_f7uhvh9Qr-8" value="2&lt;div&gt;in: 2&lt;/div&gt;&lt;div&gt;out: 2&lt;/div&gt;" style="text;html=1;align=center;verticalAlign=middle;resizable=0;points=[];autosize=1;strokeColor=none;fillColor=none;" parent="1" vertex="1">
          <mxGeometry x="215" y="420" width="50" height="60" as="geometry" />
        </mxCell>
        <mxCell id="gWYPEoPo8H_f7uhvh9Qr-9" value="&lt;div&gt;&lt;span style=&quot;background-color: initial;&quot;&gt;213&lt;/span&gt;&lt;br&gt;&lt;/div&gt;&lt;div&gt;&lt;span style=&quot;background-color: initial;&quot;&gt;in: 2&lt;/span&gt;&lt;/div&gt;&lt;div&gt;&lt;span style=&quot;background-color: initial;&quot;&gt;out: 2&lt;/span&gt;&lt;/div&gt;" style="text;html=1;align=center;verticalAlign=middle;resizable=0;points=[];autosize=1;strokeColor=none;fillColor=none;" parent="1" vertex="1">
          <mxGeometry x="325" y="335" width="50" height="60" as="geometry" />
        </mxCell>
        <mxCell id="gWYPEoPo8H_f7uhvh9Qr-10" value="10747&lt;div&gt;in: 2&lt;/div&gt;&lt;div&gt;out: 2&lt;/div&gt;" style="text;html=1;align=center;verticalAlign=middle;resizable=0;points=[];autosize=1;strokeColor=none;fillColor=none;" parent="1" vertex="1">
          <mxGeometry x="353" y="480" width="60" height="60" as="geometry" />
        </mxCell>
        <mxCell id="gWYPEoPo8H_f7uhvh9Qr-18" value="" style="endArrow=classic;html=1;rounded=0;" parent="1" edge="1">
          <mxGeometry width="50" height="50" relative="1" as="geometry">
            <mxPoint x="360" y="683" as="sourcePoint" />
            <mxPoint x="350" y="613" as="targetPoint" />
          </mxGeometry>
        </mxCell>
        <mxCell id="gWYPEoPo8H_f7uhvh9Qr-19" value="1" style="edgeLabel;html=1;align=center;verticalAlign=middle;resizable=0;points=[];" parent="gWYPEoPo8H_f7uhvh9Qr-18" vertex="1" connectable="0">
          <mxGeometry x="-0.0794" relative="1" as="geometry">
            <mxPoint as="offset" />
          </mxGeometry>
        </mxCell>
        <mxCell id="gWYPEoPo8H_f7uhvh9Qr-20" value="" style="endArrow=classic;html=1;rounded=0;" parent="1" edge="1">
          <mxGeometry width="50" height="50" relative="1" as="geometry">
            <mxPoint x="340" y="695" as="sourcePoint" />
            <mxPoint x="280" y="700" as="targetPoint" />
          </mxGeometry>
        </mxCell>
        <mxCell id="gWYPEoPo8H_f7uhvh9Qr-21" value="9" style="edgeLabel;html=1;align=center;verticalAlign=middle;resizable=0;points=[];" parent="gWYPEoPo8H_f7uhvh9Qr-20" vertex="1" connectable="0">
          <mxGeometry x="-0.049" y="1" relative="1" as="geometry">
            <mxPoint as="offset" />
          </mxGeometry>
        </mxCell>
        <mxCell id="gWYPEoPo8H_f7uhvh9Qr-24" value="" style="endArrow=classic;html=1;rounded=0;" parent="1" edge="1">
          <mxGeometry width="50" height="50" relative="1" as="geometry">
            <mxPoint x="280" y="720" as="sourcePoint" />
            <mxPoint x="340" y="713" as="targetPoint" />
          </mxGeometry>
        </mxCell>
        <mxCell id="gWYPEoPo8H_f7uhvh9Qr-25" value="12" style="edgeLabel;html=1;align=center;verticalAlign=middle;resizable=0;points=[];" parent="gWYPEoPo8H_f7uhvh9Qr-24" vertex="1" connectable="0">
          <mxGeometry x="-0.1505" y="-1" relative="1" as="geometry">
            <mxPoint as="offset" />
          </mxGeometry>
        </mxCell>
        <mxCell id="gWYPEoPo8H_f7uhvh9Qr-26" value="" style="endArrow=classic;html=1;rounded=0;" parent="1" edge="1">
          <mxGeometry width="50" height="50" relative="1" as="geometry">
            <mxPoint x="370" y="613" as="sourcePoint" />
            <mxPoint x="380" y="683" as="targetPoint" />
          </mxGeometry>
        </mxCell>
        <mxCell id="gWYPEoPo8H_f7uhvh9Qr-27" value="10" style="edgeLabel;html=1;align=center;verticalAlign=middle;resizable=0;points=[];" parent="gWYPEoPo8H_f7uhvh9Qr-26" vertex="1" connectable="0">
          <mxGeometry x="-0.1217" relative="1" as="geometry">
            <mxPoint as="offset" />
          </mxGeometry>
        </mxCell>
        <mxCell id="gWYPEoPo8H_f7uhvh9Qr-28" value="&lt;div&gt;C&lt;/div&gt;&lt;div&gt;in: 2&lt;/div&gt;&lt;div&gt;out: 0&lt;/div&gt;" style="text;html=1;align=center;verticalAlign=middle;resizable=0;points=[];autosize=1;strokeColor=none;fillColor=none;" parent="1" vertex="1">
          <mxGeometry x="215" y="680" width="50" height="60" as="geometry" />
        </mxCell>
        <mxCell id="gWYPEoPo8H_f7uhvh9Qr-29" value="&lt;div&gt;A&lt;/div&gt;&lt;div&gt;&lt;span style=&quot;background-color: initial;&quot;&gt;in: 3&lt;/span&gt;&lt;/div&gt;&lt;div&gt;&lt;span style=&quot;background-color: initial;&quot;&gt;out: 1&lt;/span&gt;&lt;/div&gt;" style="text;html=1;align=center;verticalAlign=middle;resizable=0;points=[];autosize=1;strokeColor=none;fillColor=none;" parent="1" vertex="1">
          <mxGeometry x="325" y="550" width="50" height="60" as="geometry" />
        </mxCell>
        <mxCell id="gWYPEoPo8H_f7uhvh9Qr-30" value="&lt;div&gt;D&lt;/div&gt;&lt;div&gt;in: 0&lt;/div&gt;&lt;div&gt;out: 0&lt;/div&gt;" style="text;html=1;align=center;verticalAlign=middle;resizable=0;points=[];autosize=1;strokeColor=none;fillColor=none;" parent="1" vertex="1">
          <mxGeometry x="345" y="680" width="50" height="60" as="geometry" />
        </mxCell>
        <mxCell id="gWYPEoPo8H_f7uhvh9Qr-31" value="" style="endArrow=classic;html=1;rounded=0;" parent="1" edge="1">
          <mxGeometry width="50" height="50" relative="1" as="geometry">
            <mxPoint x="325" y="572" as="sourcePoint" />
            <mxPoint x="265" y="577" as="targetPoint" />
          </mxGeometry>
        </mxCell>
        <mxCell id="gWYPEoPo8H_f7uhvh9Qr-32" value="4" style="edgeLabel;html=1;align=center;verticalAlign=middle;resizable=0;points=[];" parent="gWYPEoPo8H_f7uhvh9Qr-31" vertex="1" connectable="0">
          <mxGeometry x="-0.049" y="1" relative="1" as="geometry">
            <mxPoint as="offset" />
          </mxGeometry>
        </mxCell>
        <mxCell id="gWYPEoPo8H_f7uhvh9Qr-33" value="" style="endArrow=classic;html=1;rounded=0;" parent="1" edge="1">
          <mxGeometry width="50" height="50" relative="1" as="geometry">
            <mxPoint x="265" y="597" as="sourcePoint" />
            <mxPoint x="325" y="590" as="targetPoint" />
          </mxGeometry>
        </mxCell>
        <mxCell id="gWYPEoPo8H_f7uhvh9Qr-34" value="2" style="edgeLabel;html=1;align=center;verticalAlign=middle;resizable=0;points=[];" parent="gWYPEoPo8H_f7uhvh9Qr-33" vertex="1" connectable="0">
          <mxGeometry x="-0.1505" y="-1" relative="1" as="geometry">
            <mxPoint as="offset" />
          </mxGeometry>
        </mxCell>
        <mxCell id="gWYPEoPo8H_f7uhvh9Qr-35" value="" style="endArrow=classic;html=1;rounded=0;" parent="1" edge="1">
          <mxGeometry width="50" height="50" relative="1" as="geometry">
            <mxPoint x="225" y="680" as="sourcePoint" />
            <mxPoint x="215" y="610" as="targetPoint" />
          </mxGeometry>
        </mxCell>
        <mxCell id="gWYPEoPo8H_f7uhvh9Qr-36" value="5" style="edgeLabel;html=1;align=center;verticalAlign=middle;resizable=0;points=[];" parent="gWYPEoPo8H_f7uhvh9Qr-35" vertex="1" connectable="0">
          <mxGeometry x="-0.0794" relative="1" as="geometry">
            <mxPoint as="offset" />
          </mxGeometry>
        </mxCell>
        <mxCell id="gWYPEoPo8H_f7uhvh9Qr-37" value="" style="endArrow=classic;html=1;rounded=0;" parent="1" edge="1">
          <mxGeometry width="50" height="50" relative="1" as="geometry">
            <mxPoint x="235" y="610" as="sourcePoint" />
            <mxPoint x="245" y="680" as="targetPoint" />
          </mxGeometry>
        </mxCell>
        <mxCell id="gWYPEoPo8H_f7uhvh9Qr-38" value="8" style="edgeLabel;html=1;align=center;verticalAlign=middle;resizable=0;points=[];" parent="gWYPEoPo8H_f7uhvh9Qr-37" vertex="1" connectable="0">
          <mxGeometry x="-0.1217" relative="1" as="geometry">
            <mxPoint as="offset" />
          </mxGeometry>
        </mxCell>
        <mxCell id="gWYPEoPo8H_f7uhvh9Qr-39" value="&lt;div&gt;B&lt;/div&gt;&lt;div&gt;&lt;span style=&quot;background-color: initial;&quot;&gt;in: 3&lt;/span&gt;&lt;/div&gt;&lt;div&gt;&lt;span style=&quot;background-color: initial;&quot;&gt;out: 1&lt;/span&gt;&lt;/div&gt;" style="text;html=1;align=center;verticalAlign=middle;resizable=0;points=[];autosize=1;strokeColor=none;fillColor=none;" parent="1" vertex="1">
          <mxGeometry x="200" y="550" width="50" height="60" as="geometry" />
        </mxCell>
        <mxCell id="gWYPEoPo8H_f7uhvh9Qr-42" value="" style="endArrow=classic;html=1;rounded=0;" parent="1" edge="1">
          <mxGeometry width="50" height="50" relative="1" as="geometry">
            <mxPoint x="315" y="660" as="sourcePoint" />
            <mxPoint x="345" y="680" as="targetPoint" />
          </mxGeometry>
        </mxCell>
        <mxCell id="gWYPEoPo8H_f7uhvh9Qr-43" value="11" style="edgeLabel;html=1;align=center;verticalAlign=middle;resizable=0;points=[];" parent="gWYPEoPo8H_f7uhvh9Qr-42" vertex="1" connectable="0">
          <mxGeometry x="-0.1505" y="-1" relative="1" as="geometry">
            <mxPoint as="offset" />
          </mxGeometry>
        </mxCell>
        <mxCell id="gWYPEoPo8H_f7uhvh9Qr-48" value="" style="endArrow=classic;html=1;rounded=0;" parent="1" edge="1">
          <mxGeometry width="50" height="50" relative="1" as="geometry">
            <mxPoint x="310" y="640" as="sourcePoint" />
            <mxPoint x="333.6" y="606.5" as="targetPoint" />
          </mxGeometry>
        </mxCell>
        <mxCell id="gWYPEoPo8H_f7uhvh9Qr-49" value="3" style="edgeLabel;html=1;align=center;verticalAlign=middle;resizable=0;points=[];" parent="gWYPEoPo8H_f7uhvh9Qr-48" vertex="1" connectable="0">
          <mxGeometry x="-0.0938" relative="1" as="geometry">
            <mxPoint as="offset" />
          </mxGeometry>
        </mxCell>
        <mxCell id="gWYPEoPo8H_f7uhvh9Qr-50" value="" style="endArrow=classic;html=1;rounded=0;" parent="1" edge="1">
          <mxGeometry width="50" height="50" relative="1" as="geometry">
            <mxPoint x="290" y="660" as="sourcePoint" />
            <mxPoint x="260" y="692" as="targetPoint" />
          </mxGeometry>
        </mxCell>
        <mxCell id="gWYPEoPo8H_f7uhvh9Qr-51" value="7" style="edgeLabel;html=1;align=center;verticalAlign=middle;resizable=0;points=[];" parent="gWYPEoPo8H_f7uhvh9Qr-50" vertex="1" connectable="0">
          <mxGeometry x="-0.1413" y="-2" relative="1" as="geometry">
            <mxPoint as="offset" />
          </mxGeometry>
        </mxCell>
        <mxCell id="gWYPEoPo8H_f7uhvh9Qr-54" value="" style="endArrow=classic;html=1;rounded=0;" parent="1" edge="1">
          <mxGeometry width="50" height="50" relative="1" as="geometry">
            <mxPoint x="280" y="630" as="sourcePoint" />
            <mxPoint x="250" y="610" as="targetPoint" />
          </mxGeometry>
        </mxCell>
        <mxCell id="gWYPEoPo8H_f7uhvh9Qr-55" value="6" style="edgeLabel;html=1;align=center;verticalAlign=middle;resizable=0;points=[];" parent="gWYPEoPo8H_f7uhvh9Qr-54" vertex="1" connectable="0">
          <mxGeometry x="-0.1505" y="-1" relative="1" as="geometry">
            <mxPoint as="offset" />
          </mxGeometry>
        </mxCell>
      </root>
    </mxGraphModel>
  </diagram>
</mxfile>
